<svg width="29" height="29" fill="none" xmlns="http://www.w3.org/2000/svg"><path fill-rule="evenodd" clip-rule="evenodd" d="m5.682 11.996 7.576-7.577.943.943-7.576 7.576-.943-.942zM8.196 14.51l7.577-7.576.942.942-7.576 7.577-.943-.943zM13.54 19.852l7.575-7.576.943.943-7.576 7.576-.943-.943zM16.053 22.366l7.576-7.576.943.943-7.576 7.576-.943-.943z" fill="#F5F5F5"/><path fill-rule="evenodd" clip-rule="evenodd" d="M16.053 22.366c-2.615 2.616-6.846 2.625-9.45.021-2.603-2.603-2.593-6.834.022-9.449l-.943-.942c-3.138 3.138-3.15 8.214-.025 11.338 3.124 3.125 8.2 3.113 11.339-.025l-.943-.943zM21.115 12.276l.943.943c2.44-2.44 2.45-6.39.02-8.82-2.43-2.43-6.379-2.42-8.82.02l.943.943c1.918-1.918 5.02-1.924 6.93-.015 1.909 1.909 1.902 5.011-.016 6.93z" fill="#F5F5F5"/><path fill-rule="evenodd" clip-rule="evenodd" d="M8.196 14.51c-1.743 1.743-1.75 4.564-.014 6.3 1.736 1.735 4.556 1.729 6.3-.015l-.943-.942a3.118 3.118 0 0 1-4.41.01 3.118 3.118 0 0 1 .01-4.41l-.943-.943z" fill="#F5F5F5"/></svg>