<svg version="1.0" xmlns="http://www.w3.org/2000/svg" width="666.667" height="666.667" viewBox="0 0 500 500"><path d="M7.4 7.4 4 10.8V250c0 221.4.1 239.4 1.7 242 .9 1.6 2.7 3.3 4 3.9 3.4 1.6 478.2 1.6 481.6 0 1.3-.6 3.1-2.3 4-3.9 1.6-2.6 1.7-20.6 1.7-242V10.8l-3.4-3.4-3.4-3.4H10.8L7.4 7.4zm301.1 48.7c13.5 1.3 29 4.1 41 7.5 9.6 2.7 23.5 8.2 23.5 9.2.1.4-3.9 16.3-8.7 35.4-10.5 41.6-8.5 38.8-24.4 33.3-5.6-1.9-15.9-4.8-22.8-6.2-11.5-2.5-14.6-2.7-34.6-2.7-18.7 0-23.4.3-31.5 2.1-40.5 8.9-67.7 33.2-79.8 71.3-6.4 20-8.1 50.5-4.3 73.2 11.2 65.2 63.4 98.8 139.1 89.4 13.7-1.7 28.8-4.9 38-8 11.2-3.8 10.3-5.4 17.7 32.5 3.4 17.8 6.5 33.4 6.7 34.5.5 1.8-.3 2.5-5.4 4.8-20.6 9.3-54.6 14.7-92.5 14.8-24 .1-36.4-1-55.3-4.8C128.3 425 74.8 362.5 69.1 271.8c-2-31 1.9-61.9 11-88.5 10.3-30 24.2-51.8 46.6-73.3 13.4-13 26-22 42.4-30.4C210 58.4 254.2 51 308.5 56.1z"/></svg>